<?xml version="1.0" encoding="UTF-8" standalone="no"?>
<svg
   xmlns:dc="http://purl.org/dc/elements/1.1/"
   xmlns:cc="http://creativecommons.org/ns#"
   xmlns:rdf="http://www.w3.org/1999/02/22-rdf-syntax-ns#"
   xmlns:svg="http://www.w3.org/2000/svg"
   xmlns="http://www.w3.org/2000/svg"
   xmlns:xlink="http://www.w3.org/1999/xlink"
   xmlns:sodipodi="http://sodipodi.sourceforge.net/DTD/sodipodi-0.dtd"
   xmlns:inkscape="http://www.inkscape.org/namespaces/inkscape"
   width="414.07477"
   height="274.15985"
   version="1.1"
   id="svg52"
   sodipodi:docname="logo.svg"
   inkscape:version="1.0.1 (3bc2e813f5, 2020-09-07)"
   inkscape:export-filename="C:\Users\tozix\Downloads\svg-editor-image(2).png"
   inkscape:export-xdpi="96"
   inkscape:export-ydpi="96">
  <metadata
     id="metadata58">
    <rdf:RDF>
      <cc:Work
         rdf:about="">
        <dc:format>image/svg+xml</dc:format>
        <dc:type
           rdf:resource="http://purl.org/dc/dcmitype/StillImage" />
        <dc:title></dc:title>
      </cc:Work>
    </rdf:RDF>
  </metadata>
  <defs
     id="defs56">
    <linearGradient
       inkscape:collect="always"
       id="linearGradient922">
      <stop
         style="stop-color:#000000;stop-opacity:1;"
         offset="0"
         id="stop918" />
      <stop
         style="stop-color:#000000;stop-opacity:0;"
         offset="1"
         id="stop920" />
    </linearGradient>
    <linearGradient
       inkscape:collect="always"
       xlink:href="#linearGradient922"
       id="linearGradient924"
       x1="22.745942"
       y1="230.90655"
       x2="220.99982"
       y2="230.90655"
       gradientUnits="userSpaceOnUse" />
  </defs>
  <sodipodi:namedview
     pagecolor="#272727"
     bordercolor="#666666"
     borderopacity="1"
     objecttolerance="10"
     gridtolerance="10"
     guidetolerance="10"
     inkscape:pageopacity="0.40784314"
     inkscape:pageshadow="2"
     inkscape:window-width="1920"
     inkscape:window-height="1017"
     id="namedview54"
     showgrid="false"
     inkscape:zoom="1.5026019"
     inkscape:cx="177.78125"
     inkscape:cy="218.43584"
     inkscape:window-x="-8"
     inkscape:window-y="-8"
     inkscape:window-maximized="1"
     inkscape:current-layer="svg52"
     inkscape:pagecheckerboard="false" />
  <!-- Created with SVG Editor - http://github.com/mzalive/SVG Editor/ -->
  <g
     transform="matrix(2.32112,0,0,2.9190476,-67.095553,-162.58997)"
     id="svg_4"
     style="mix-blend-mode:soft-light;fill:#ffffff;fill-opacity:1">
    <g
       id="svg_3"
       style="fill:#ffffff;fill-opacity:1">
      <path
         id="svg_1"
         d="m 188.79884,100.24461 c 0.94501,-1.741001 1.44501,-3.713001 1.44501,-5.703999 0,-6.604004 -5.37298,-11.977005 -11.979,-11.977005 -6.60402,0 -11.97701,5.373001 -11.97701,11.977005 0,2.207993 0.618,4.375992 1.786,6.270999 2.203,3.57298 6.013,5.70601 10.19003,5.70601 4.40198,-0.002 8.43897,-2.40302 10.53497,-6.27301 z M 178.26787,84.561607 c 5.49997,0 9.978,4.475998 9.978,9.977005 0,1.18399 -0.21302,2.360001 -0.61701,3.462997 -0.31601,-0.296997 -0.64599,-0.574997 -0.988,-0.837997 -0.092,-0.071 -0.18802,-0.132004 -0.28202,-0.199997 -0.27099,-0.195007 -0.539,-0.38501 -0.81799,-0.559006 -0.14099,-0.08701 -0.285,-0.164001 -0.42999,-0.244995 -0.245,-0.139008 -0.48999,-0.274002 -0.745,-0.39801 -0.15701,-0.077 -0.319,-0.147995 -0.483,-0.218994 -0.24802,-0.109009 -0.5,-0.210007 -0.754,-0.303009 -0.168,-0.06099 -0.33801,-0.119995 -0.50799,-0.174988 -0.072,-0.02301 -0.14502,-0.052 -0.21503,-0.073 l 1.53702,-2.030014 c 0.33401,-0.439987 0.246,-1.067993 -0.19101,-1.400986 -0.44098,-0.335007 -1.068,-0.246002 -1.4,0.192993 l -2.11502,2.787003 c -0.082,-0.01001 -0.16397,-0.02299 -0.24798,-0.03101 -0.44898,-0.04599 -0.89899,-0.07399 -1.35498,-0.07399 -0.49003,0 -0.97501,0.03099 -1.45304,0.084 -0.15597,0.017 -0.31097,0.049 -0.46597,0.071 -0.32001,0.047 -0.64002,0.097 -0.953,0.166992 -0.17902,0.04001 -0.35501,0.091 -0.53202,0.138 -0.28399,0.076 -0.565,0.156006 -0.84201,0.25 -0.18197,0.062 -0.35998,0.130005 -0.53799,0.199997 -0.26599,0.104004 -0.52799,0.216003 -0.78598,0.337006 -0.173,0.08099 -0.345,0.164001 -0.51401,0.253006 -0.25799,0.134995 -0.50903,0.281998 -0.75702,0.434998 -0.15599,0.09599 -0.31399,0.188995 -0.46599,0.291 -0.263,0.177002 -0.51501,0.369995 -0.766,0.567001 -0.125,0.09799 -0.254,0.187988 -0.375,0.291 -0.34401,0.291 -0.675,0.599991 -0.991,0.927994 -0.019,0.02 -0.041,0.037 -0.06,0.05701 -0.002,0.002 -0.003,0.003 -0.005,0.005 -0.54801,-1.251999 -0.83299,-2.602997 -0.83299,-3.970993 -0.006,-5.501007 4.47001,-9.977005 9.97102,-9.977005 z m 0,19.953993 c -3.24002,0 -6.21402,-1.542 -8.09003,-4.15899 0.073,-0.085 0.142,-0.17301 0.217,-0.256 0.126,-0.13901 0.255,-0.274996 0.388,-0.408007 0.16501,-0.164993 0.336,-0.32399 0.50999,-0.47699 0.13901,-0.123001 0.28002,-0.24501 0.42501,-0.360001 0.18098,-0.144012 0.36702,-0.279007 0.555,-0.411011 0.15,-0.104996 0.301,-0.210999 0.456,-0.30899 0.19601,-0.123001 0.39801,-0.235001 0.60101,-0.346008 0.15799,-0.086 0.315,-0.175003 0.47699,-0.252991 0.21301,-0.103012 0.43201,-0.19101 0.651,-0.279999 0.16202,-0.06601 0.32202,-0.136002 0.487,-0.194 0.233,-0.082 0.47299,-0.146011 0.71201,-0.212006 0.15799,-0.04401 0.31299,-0.095 0.47699,-0.132004 0.268,-0.06099 0.543,-0.10199 0.81601,-0.14299 0.13901,-0.02101 0.27301,-0.052 0.414,-0.06801 0.418,-0.047 0.83801,-0.073 1.26501,-0.073 0.39698,0 0.792,0.02299 1.18299,0.065 0.13101,0.01399 0.25799,0.041 0.38702,0.06 0.25998,0.037 0.51999,0.073 0.771,0.128006 0.15198,0.03299 0.30099,0.07799 0.45099,0.116989 0.22699,0.05901 0.453,0.116013 0.67401,0.189011 0.156,0.051 0.30899,0.113998 0.46399,0.171997 0.20898,0.079 0.418,0.158005 0.621,0.248993 0.15298,0.069 0.306,0.147003 0.45599,0.223007 0.19501,0.099 0.39102,0.19899 0.57801,0.30899 0.14599,0.08601 0.29299,0.179001 0.43801,0.272003 0.18699,0.117996 0.36399,0.240005 0.54099,0.369003 0.142,0.102005 0.276,0.208008 0.41199,0.317001 0.17001,0.136993 0.33801,0.279999 0.5,0.427994 0.12899,0.117004 0.25601,0.236008 0.37899,0.359009 0.068,0.06799 0.13401,0.140991 0.198,0.210999 -1.828,2.862995 -4.98999,4.612995 -8.41397,4.612995 z"
         style="fill:#ffffff;fill-opacity:1" />
      <path
         id="svg_2"
         d="m 207.3002,128.28666 c -0.39999,-10.037 -4.45199,-19.29701 -11.12698,-25.52201 0.604,-2.65599 0.92398,-5.361982 0.92398,-8.05699 0,-12.837997 -6.854,-24.755997 -17.91199,-31.268997 v -6.738998 c 0,-0.552002 -0.44699,-1 -1,-1 -0.55301,0 -1,0.447998 -1,1 v 6.738998 c -11.05601,6.513 -17.91002,18.431992 -17.91002,31.268997 0,2.617004 0.301,5.246004 0.87,7.82599 -6.802,6.20701 -10.94501,15.50901 -11.37601,25.64803 -0.019,0.44598 0.261,0.85399 0.68701,0.99199 3.67099,1.20898 7.48999,1.81898 11.35199,1.81898 l 0.45001,-0.01 c 0.40101,-0.007 0.76099,-0.248 0.91401,-0.61701 1.431,-3.45099 4.71299,-6.24399 8.91999,-7.68799 l -1.688,10.56 c -3.806,0.33798 -6.858,3.32099 -7.299,7.103 -4.01201,0.46899 -7.138,3.88299 -7.138,8.02099 0,0.553 0.448,1 1,1 0.55199,0 1,-0.447 1,-1 0,-3.354 2.72699,-6.078 6.079,-6.078 0.552,0 1,-0.449 1,-1 0,-2.994 2.177,-5.481 5.02899,-5.981 l -0.55399,3.46501 c -0.087,0.54498 0.284,1.05899 0.82999,1.146 0.053,0.008 0.106,0.013 0.15901,0.013 0.482,0 0.907,-0.35102 0.986,-0.84301 l 2.71502,-16.98899 c 3.16098,-0.688 6.54199,-0.60901 9.642,0.22901 l 2.72101,17.02099 c 0.079,0.49099 0.50397,0.84199 0.98599,0.84199 0.053,0 0.10397,-0.004 0.15799,-0.012 0.54498,-0.089 0.918,-0.60098 0.83002,-1.14599 l -0.55503,-3.46601 c 2.85401,0.5 5.02601,2.98801 5.02601,5.98001 0,0.55301 0.449,1 1,1 3.354,0 6.08001,2.72901 6.08001,6.07801 0,0.55299 0.44498,1 1,1 0.552,0 1,-0.44701 1,-1 0,-4.13501 -3.12701,-7.551 -7.142,-8.021 -0.43801,-3.772 -3.48901,-6.76401 -7.29901,-7.10202 l -1.67401,-10.47498 c 3.76599,1.52 6.62403,4.121 7.956,7.31099 0.14901,0.355 0.48901,0.594 0.875,0.613 0.57901,0.025 1.15902,0.043 1.74301,0.043 3.76001,0 7.475,-0.57598 11.043,-1.71498 0.432,-0.134 0.716,-0.53698 0.699,-0.988 z m -46.70701,0.70901 c -3.322,-0.021 -6.61001,-0.52099 -9.78701,-1.48901 0.55301,-8.912 4.112,-17.07999 9.888,-22.757 0.059,0.207 0.13401,0.40601 0.196,0.609 0.10001,0.32499 0.205,0.649 0.31401,0.975 0.176,0.521 0.36499,1.03499 0.56301,1.54799 0.11898,0.30501 0.23599,0.612 0.36299,0.91602 0.231,0.54899 0.47999,1.086 0.737,1.61999 0.119,0.248 0.22799,0.498 0.352,0.74201 0.39099,0.77099 0.805,1.526 1.25099,2.267 0.036,0.063 0.078,0.11599 0.114,0.17599 0.414,0.68201 0.85102,1.34601 1.31,1.992 0.16602,0.23501 0.345,0.461 0.51601,0.69201 0.347,0.46998 0.701,0.93299 1.072,1.38299 0.208,0.25499 0.424,0.50301 0.64,0.75301 0.36299,0.418 0.734,0.82699 1.11699,1.23099 0.23001,0.23901 0.46201,0.481 0.69901,0.71899 0.143,0.14201 0.27499,0.29102 0.41999,0.43301 -4.46598,1.54801 -8.01199,4.512 -9.765,8.19001 z m 16.97001,-9.38701 c -1.67401,0 -3.33401,0.186 -4.94101,0.54899 -0.29199,-0.26498 -0.573,-0.53498 -0.85498,-0.80999 -0.29202,-0.278 -0.59103,-0.557 -0.87202,-0.848 -0.33301,-0.34399 -0.644,-0.703 -0.961,-1.059 -0.26401,-0.301 -0.53701,-0.592 -0.79001,-0.896 -0.30699,-0.371 -0.592,-0.75599 -0.88199,-1.13899 -0.23601,-0.311 -0.482,-0.61301 -0.70601,-0.93201 -0.282,-0.39599 -0.53898,-0.813 -0.804,-1.222 -0.20599,-0.319 -0.42299,-0.63301 -0.618,-0.95601 -0.257,-0.431 -0.48799,-0.875 -0.72599,-1.31399 -0.174,-0.32199 -0.36001,-0.63699 -0.52401,-0.965 -0.23599,-0.476 -0.444,-0.96299 -0.658,-1.447 -0.13699,-0.31099 -0.288,-0.61099 -0.41599,-0.926 -0.22201,-0.547 -0.41301,-1.10899 -0.60701,-1.67 -0.092,-0.265 -0.19999,-0.52301 -0.28599,-0.791 -0.267,-0.834 -0.504,-1.68101 -0.70801,-2.53901 -0.621,-2.61399 -0.93599,-5.286986 -0.93599,-7.943984 0,-12.128006 6.46399,-23.399002 16.91101,-29.555 10.44699,6.155998 16.91199,17.426994 16.91199,29.555 0,2.729004 -0.33398,5.473994 -0.98898,8.157984 -0.21201,0.864 -0.45603,1.71701 -0.73099,2.55501 -0.086,0.265 -0.19202,0.519 -0.28601,0.77901 -0.19901,0.56498 -0.39701,1.13899 -0.63202,1.68998 -0.13098,0.31401 -0.284,0.61901 -0.427,0.93502 -0.21997,0.48298 -0.43299,0.977 -0.67298,1.448 -0.16803,0.33 -0.35901,0.64599 -0.53802,0.97399 -0.24298,0.43801 -0.47797,0.885 -0.73899,1.31301 -0.20199,0.32999 -0.427,0.64599 -0.64102,0.97299 -0.26797,0.40201 -0.52698,0.81201 -0.81198,1.209 -0.23099,0.32001 -0.48501,0.631 -0.73099,0.94301 -0.29303,0.377 -0.57901,0.75799 -0.889,1.12298 -0.262,0.31101 -0.54099,0.60401 -0.814,0.90101 -0.32001,0.35301 -0.63501,0.707 -0.97101,1.04901 -0.28698,0.291 -0.59201,0.56599 -0.893,0.849 -0.28101,0.26998 -0.564,0.53698 -0.857,0.79499 -1.905,-0.51699 -3.88901,-0.785 -5.91,-0.785 z m 16.96298,9.368 c -1.63998,-3.43799 -4.79599,-6.217 -8.86596,-7.842 0.15899,-0.14699 0.30798,-0.312 0.46298,-0.465 0.246,-0.23799 0.48502,-0.479 0.72601,-0.72499 0.39099,-0.40201 0.771,-0.81401 1.14099,-1.23001 0.22,-0.248 0.43802,-0.492 0.646,-0.744 0.38998,-0.461 0.758,-0.93599 1.116,-1.41201 0.169,-0.22299 0.34701,-0.43798 0.50702,-0.664 1.02398,-1.418 1.94,-2.905 2.74597,-4.45898 0.12701,-0.24301 0.23901,-0.49501 0.36001,-0.74301 0.267,-0.539 0.521,-1.084 0.75998,-1.64 0.13001,-0.299 0.24802,-0.60399 0.36902,-0.903 0.207,-0.521 0.40201,-1.048 0.58801,-1.578 0.10898,-0.318 0.21601,-0.64 0.31598,-0.961 0.066,-0.209 0.14502,-0.414 0.207,-0.627 5.65601,5.688 9.13102,13.80501 9.65601,22.614 -3.474,1.025 -7.11899,1.48801 -10.73502,1.379 z"
         style="fill:#ffffff;fill-opacity:1" />
    </g>
  </g>
  <text
     font-style="normal"
     transform="scale(0.99946809,1.0005322)"
     xml:space="preserve"
     text-anchor="start"
     font-family="'Shadows Into Light', serif"
     font-size="156.378px"
     id="svg_5"
     y="121.15558"
     x="-9.5445557"
     stroke-width="0"
     stroke="#000000"
     fill="#000000"
     style="font-style:normal;font-variant:normal;font-weight:normal;font-stretch:normal;font-family:'Agency FB';-inkscape-font-specification:'Agency FB';mix-blend-mode:normal;fill:#ffffff;fill-opacity:1;"><tspan
       style="font-style:normal;font-variant:normal;font-weight:normal;font-stretch:normal;font-family:'Agency FB';-inkscape-font-specification:'Agency FB';fill:#ffffff;fill-opacity:1;stroke-width:0;"
       id="tspan60">Boost</tspan></text>
  <text
     transform="scale(1.1271494,0.88719383)"
     xml:space="preserve"
     text-anchor="start"
     font-family="'Shadows Into Light', serif"
     font-size="203.725px"
     id="svg_6"
     y="308.74582"
     x="10.311554"
     stroke-width="0"
     stroke="#000000"
     fill="#000000"
     style="font-style:normal;font-variant:normal;font-weight:normal;font-stretch:normal;font-family:'Agency FB';-inkscape-font-specification:'Agency FB';fill:#ffffff;fill-opacity:1;stroke:none;stroke-opacity:1;">Net</text>
</svg>
